<svg id="Layer_1" data-name="Layer 1" xmlns="http://www.w3.org/2000/svg" viewBox="0 0 200.06 186"><defs><style>.cls-1{fill:#fff;}</style></defs><path class="cls-1" d="M156.78,50.44C155,69.85,143.5,88.7,124.28,95.07c1.4-2.61,2.81-5.41,4.17-8.43,13.78-7.19,19.09-20.1,21.11-29.56H136.85c.27-2.13.48-4.36.65-6.65h19.28Zm-113.5,0C45,69.85,56.56,88.7,75.78,95.07c-1.4-2.61-2.82-5.41-4.17-8.43C57.83,79.45,52.52,66.54,50.5,57.08H63.21c-.27-2.13-.48-4.36-.65-6.64Zm80,0c-1.74,21.31-9.23,34.19-16,45.72a115.82,115.82,0,0,0-7.29,14,116.23,116.23,0,0,0-7.32-14C86,84.62,78.5,71.74,76.76,50.44ZM133.13,41H66.92c0,46.36,24.15,61.73,26.51,80.4h13.26C109,102.71,133.13,87.34,133.13,41Zm-26.3,85.12H93.28c-1,5.62-3,12.39-12.16,12.39V145H119v-6.53C109.5,138.49,107.74,131.72,106.83,126.1Zm-17.23-59,6.9-1,3-6.27,3,6.27,6.91,1-5,4.83,1.23,6.86-6.15-3.28-6.15,3.28L94.62,72Z"/></svg>