<svg id="Layer_1" data-name="Layer 1" xmlns="http://www.w3.org/2000/svg" viewBox="0 0 200.06 186"><defs><style>.cls-1{fill:#fff;}</style></defs><path class="cls-1" d="M99.94,36.16A56.84,56.84,0,1,0,156.78,93,56.73,56.73,0,0,0,99.94,36.16Zm0,109.18h0A52.34,52.34,0,1,1,152.29,93a52.15,52.15,0,0,1-52.35,52.34ZM73.34,79h0A8.73,8.73,0,1,1,82,87.64,8.66,8.66,0,0,1,73.34,79ZM111,79h0a8.73,8.73,0,1,1,8.81,8.63A8.59,8.59,0,0,1,111,79Zm20.38,22.8h0a31.31,31.31,0,0,1-60.12-.17,36.49,36.49,0,0,0,60.12.17Z"/></svg>